<svg xmlns="http://www.w3.org/2000/svg" viewBox="0 0 158.81 158.81"><path d="M125.25 32.76v100.4c0 4.67-3.8 8.46-8.46 8.46H42.1c-4.67 0-8.46-3.8-8.46-8.46V32.76m-8.77 1c0-5.52 4.48-10 10-10h89.07c5.52 0 10 4.48 10 10" fill="none" stroke="#838383" stroke-width="5.372" stroke-linecap="round" stroke-linejoin="round" stroke-miterlimit="10"/><path d="M93.04 24.13v-8.4c0-.66-.54-1.2-1.2-1.2h-24.7c-.66 0-1.2.54-1.2 1.2v8.4" fill="#838383"/><g fill="none" stroke-linecap="round" stroke-linejoin="round" stroke-miterlimit="10" stroke-width="7.252"><path d="M64.85 131.5V35.5" stroke="#ffc13e"/><path d="M79.4 114.8V52.2" stroke="#7ce371"/><path d="M50.3 105.13V61.87" stroke="#fe63a6"/><path d="M93.96 124.52V42.48" stroke="#56b2ff"/><path d="M108.5 92.6V74.4" stroke="#a759ff"/></g></svg>
